<svg xmlns="http://www.w3.org/2000/svg" viewBox="0 0 511.999 511.999" style="enable-background:new 0 0 511.999 511.999" xml:space="preserve"><path style="fill:#e4eaf8" d="M464.419 215.919h-16.032a8.016 8.016 0 0 0-8.016 8.016v8.016h-37.763a56.113 56.113 0 0 1-45.969-23.934l-22.605-32.293a56.11 56.11 0 0 0-45.969-23.934h-248.5c-17.709 0-32.065 14.356-32.065 32.065v144.29c0 17.708 14.356 32.065 32.065 32.065h248.5a56.113 56.113 0 0 0 45.969-23.934l22.605-32.293a56.11 56.11 0 0 1 45.969-23.934h37.763v8.016a8.016 8.016 0 0 0 8.016 8.016h16.032a8.016 8.016 0 0 0 8.016-8.016v-64.129a8.016 8.016 0 0 0-8.016-8.017z"/><path style="fill:#d5dced" d="M464.419 270.799h-16.032c-4.427 0-8.016-2.761-8.016-6.166v-32.681h-16.032v18.499a8.016 8.016 0 0 1-8.016 8.016h-13.714c-18.31 0-35.469 6.872-45.969 18.411l-22.605 24.841c-10.5 11.539-27.659 18.411-45.969 18.411h-248.5c-17.709 0-32.065-11.043-32.065-24.665v32.681c0 17.708 14.355 32.065 32.065 32.065h248.5a56.113 56.113 0 0 0 45.969-23.934l22.605-32.293a56.114 56.114 0 0 1 45.97-23.934h37.762v8.016a8.016 8.016 0 0 0 8.016 8.016h16.032a8.016 8.016 0 0 0 8.016-8.016v-23.432c-.001 3.404-3.59 6.165-8.017 6.165z"/><path style="fill:#f5dcb4" d="M472.435 238.57v34.86l32.065 8.016v-50.892z"/><path style="fill:#96695a" d="m265.015 274.371-26.025 42.323a24.049 24.049 0 0 1-20.485 11.452h-83.919a24.048 24.048 0 0 1-21.51-13.294l-17.402-34.803h32.067l16.032 16.032h56.113l16.032-16.032 49.097-5.678z"/><path style="fill:#825a50" d="M236.215 320.129h-75.538a16.032 16.032 0 0 1-13.595-7.535l-20.341-32.545h1.003-32.067l17.401 34.803a24.05 24.05 0 0 0 21.509 13.294h83.923c6.854-.002 13.193-3.037 17.705-8.017z"/><path d="M509.116 226.04a7.498 7.498 0 0 0-6.435-1.364l-22.746 5.687v-6.427c0-8.556-6.96-15.516-15.516-15.516h-16.032c-8.556 0-15.516 6.96-15.516 15.516v.516h-30.263a48.65 48.65 0 0 1-39.825-20.735l-22.605-32.293a63.664 63.664 0 0 0-52.114-27.133h-248.5C17.749 144.291 0 162.039 0 183.855v144.29c0 21.816 17.749 39.564 39.564 39.564h248.5a63.664 63.664 0 0 0 52.114-27.133l22.605-32.293a48.652 48.652 0 0 1 39.825-20.735h30.263v.516c0 8.556 6.96 15.516 15.516 15.516h16.032c8.556 0 15.516-6.96 15.516-15.516v-6.427l22.746 5.687a7.504 7.504 0 0 0 6.434-1.364 7.5 7.5 0 0 0 2.884-5.912V231.95a7.496 7.496 0 0 0-2.883-5.91zm-44.18 62.024a.516.516 0 0 1-.516.516h-16.032a.516.516 0 0 1-.516-.516v-24.05a7.5 7.5 0 0 0-15 0v8.534h-30.263a63.661 63.661 0 0 0-52.113 27.133l-22.605 32.293a48.655 48.655 0 0 1-39.826 20.735h-248.5C26.02 352.709 15 341.69 15 328.145v-144.29c0-13.545 11.02-24.564 24.564-24.564h248.5a48.653 48.653 0 0 1 39.826 20.735l22.604 32.293a63.664 63.664 0 0 0 52.114 27.133h37.763a7.5 7.5 0 0 0 7.5-7.5v-8.016c0-.285.231-.516.516-.516h16.032c.285 0 .516.231.516.516v64.128h.001zM497 270.441l-17.064-4.266v-20.353L497 241.558v28.883z"/><path d="M356.47 242.014a81.202 81.202 0 0 1-7.322-5.756 7.497 7.497 0 0 0-10.586.65 7.5 7.5 0 0 0 .65 10.586 96.019 96.019 0 0 0 8.684 6.828 7.464 7.464 0 0 0 4.281 1.347 7.5 7.5 0 0 0 4.293-13.655zM313.912 189.812a31.581 31.581 0 0 0-25.847-13.457 7.5 7.5 0 0 0 0 15 16.57 16.57 0 0 1 13.56 7.06l17.652 25.217a7.492 7.492 0 0 0 6.15 3.2 7.499 7.499 0 0 0 6.137-11.801l-17.652-25.219zM279.116 264.591l-31.651 3.956v-29.095h8.533a7.5 7.5 0 0 0 0-15h-8.533v-17.064h8.533a7.5 7.5 0 0 0 0-15h-16.033a7.5 7.5 0 0 0-7.5 7.5v24.564h-8.532a7.5 7.5 0 0 0 0 15h8.532v30.97l-12.02 1.502a23.647 23.647 0 0 0-13.722 6.711l-7.447 7.447a8.476 8.476 0 0 1-6.033 2.499h-9.908v-33.097h16.548a7.5 7.5 0 0 0 0-15h-16.548V223.42h8.532a7.5 7.5 0 0 0 0-15h-8.532v-17.064h8.532a7.5 7.5 0 0 0 0-15h-16.032a7.5 7.5 0 0 0-7.5 7.5v24.564h-8.532a7.5 7.5 0 0 0 0 15h8.532v17.064h-16.548a7.5 7.5 0 0 0 0 15h16.548v33.097h-17.924a8.479 8.479 0 0 1-6.033-2.499l-6.641-6.641a23.385 23.385 0 0 0-10.515-6.085v-33.904h8.532a7.5 7.5 0 0 0 0-15h-8.532v-17.064h8.532a7.5 7.5 0 0 0 0-15h-16.032a7.5 7.5 0 0 0-7.5 7.5v24.564h-8.532a7.5 7.5 0 0 0 0 15h8.532v33.097H87.659a7.5 7.5 0 0 0 0 15h3.381l15.328 30.658c5.378 10.757 16.191 17.439 28.218 17.439h83.919c10.878 0 21.176-5.756 26.874-15.023l24.445-39.754 11.152-1.394a7.5 7.5 0 0 0-1.86-14.884zm-46.514 48.174c-2.989 4.861-8.391 7.88-14.097 7.88h-83.919c-6.309 0-11.98-3.505-14.802-9.147l-11.974-23.949h13.289c2.279 0 4.421.888 6.033 2.499l6.641 6.641a23.378 23.378 0 0 0 16.64 6.893h42.832a23.376 23.376 0 0 0 16.64-6.893l7.447-7.447a8.573 8.573 0 0 1 4.975-2.433l28.444-3.556-18.149 29.512zM87.659 320.646H47.578a7.5 7.5 0 0 0 0 15h40.081a7.5 7.5 0 0 0 0-15z"/></svg>